<?xml version="1.0" encoding="UTF-8"?><svg id="Layer_1" xmlns="http://www.w3.org/2000/svg" xmlns:xlink="http://www.w3.org/1999/xlink" viewBox="0 0 48 48"><defs><style>.cls-1{fill:url(#linear-gradient);}.cls-2{fill:url(#linear-gradient-3);}.cls-3{fill:url(#linear-gradient-4);}.cls-4{fill:url(#linear-gradient-2);}</style><linearGradient id="linear-gradient" x1="6.271" y1="34.445" x2="46.128" y2="47.302" gradientTransform="matrix(1, 0, 0, 1, 0, 0)" gradientUnits="userSpaceOnUse"><stop offset="0" stop-color="#34ca82"/><stop offset="1" stop-color="#37a477"/></linearGradient><linearGradient id="linear-gradient-2" x1="16.385" y1="2.995" x2="33.956" y2="37.817" gradientTransform="matrix(1, 0, 0, 1, 0, 0)" gradientUnits="userSpaceOnUse"><stop offset="0" stop-color="#fed200"/><stop offset="1" stop-color="#f59815"/></linearGradient><linearGradient id="linear-gradient-3" x1="24" y1="12.5" x2="24" y2="33.293" gradientTransform="matrix(1, 0, 0, 1, 0, 0)" gradientUnits="userSpaceOnUse"><stop offset="0" stop-color="#f1d2bd"/><stop offset="1" stop-color="#feb592"/></linearGradient><linearGradient id="linear-gradient-4" x1="24" y1="12.929" x2="24" y2="8.524" gradientTransform="matrix(1, 0, 0, 1, 0, 0)" gradientUnits="userSpaceOnUse"><stop offset="0" stop-color="#fd9b02"/><stop offset="1" stop-color="#ff7302"/></linearGradient></defs><path class="cls-1" d="M44.069,42.055l-.971-2.92c-.821-2.464-2.67-4.453-5.074-5.458l-5.69-2.37c-.122-.05-.253-.077-.385-.077h-15.9c-.132,0-.263,.026-.385,.077l-5.691,2.371c-2.403,1.004-4.252,2.993-5.073,5.458l-.97,2.919c-.304,.912-.149,1.922,.414,2.703,.569,.79,1.453,1.243,2.425,1.243H41.23c.972,0,1.855-.453,2.425-1.243,.563-.781,.718-1.791,.415-2.702Z"/><path class="cls-4" d="M24,44l-.323-.323c-3.087-3.087-6.879-5.85-7.908-12.023l-1.338-2.007c-1.834-2.751-3.111-5.834-3.759-9.075h0c-.697-3.486-.213-7.105,1.377-10.285l.71-1.42c1.281-2.561,3.412-4.598,6.028-5.761h0c3.318-1.475,7.106-1.475,10.424,0h0c2.617,1.163,4.748,3.199,6.028,5.761l.71,1.42c1.59,3.18,2.074,6.799,1.377,10.285h0c-.648,3.242-1.925,6.325-3.759,9.075l-1.338,2.007c-1.029,6.173-4.821,8.936-7.908,12.023l-.323,.323"/><path class="cls-2" d="M33.499,23.898c0,.015-.203,.959-.203,.959-.501,2.228-1.866,4.168-3.806,5.383l-3.241,2.015c-1.386,.874-3.134,.874-4.52,0l-3.241-2.015c-1.94-1.215-3.305-3.155-3.806-5.383,0,0-.178-.619-.181-.832-.107-6.343,4.158-15.937,9.488-15.937s9.594,9.594,9.509,15.809Z"/><path class="cls-3" d="M20.723,12.79c2.166-.361,4.377-.361,6.543,0l3.327,.554c-1.707-3.012-4.025-5.255-6.598-5.255s-4.882,2.236-6.586,5.253l3.315-.552Z"/></svg>