<?xml version="1.0" encoding="UTF-8" standalone="no"?> <svg xmlns="http://www.w3.org/2000/svg" viewBox="0 0 512 512"><defs><style>.cls-1{fill:#2ecc71;}.cls-2{fill:#27ae60;}.cls-3{fill:#ffd18d;}.cls-4{fill:#eaab71;}.cls-5{fill:#ecf0f1;}.cls-6{fill:#bdc3c7;}</style></defs><title>Muslim</title><g id="Layer_1" data-name="Layer 1"><path class="cls-1" d="M206.15,262.933a181.426,181.426,0,0,0-131.488,174.4A42.683,42.683,0,0,0,117.329,480H394.662a42.662,42.662,0,0,0,42.667-42.667A181.441,181.441,0,0,0,305.841,262.944S279.391,256,256,256,206.15,262.933,206.15,262.933Z"/><path class="cls-2" d="M150.387,472.975A44.877,44.877,0,0,1,137.2,441.149,191.408,191.408,0,0,1,275.435,257.3,163.7,163.7,0,0,0,256,256c-23.4,0-49.846,6.933-49.846,6.933a181.426,181.426,0,0,0-131.488,174.4A42.683,42.683,0,0,0,117.329,480h42.158A45.143,45.143,0,0,1,150.387,472.975Z"/><rect class="cls-3" x="160" y="32" width="192" height="245.333" rx="96"/><path class="cls-4" d="M193.6,182.177v-55.02A99.073,99.073,0,0,1,263.99,32.334c-2.635-.218-5.3-.334-7.99-.334h0a96,96,0,0,0-96,96v53.333a96,96,0,0,0,96,96h0c2.691,0,5.355-.116,7.991-.333A99.075,99.075,0,0,1,193.6,182.177Z"/><path class="cls-5" d="M256,32h0a96,96,0,0,0-96,96v10.667S196.284,128,256.756,128,352,138.667,352,138.667V128A96,96,0,0,0,256,32Z"/><path class="cls-6" d="M193.6,127.157A99.073,99.073,0,0,1,263.99,32.334c-2.635-.218-5.3-.334-7.99-.334h0a96,96,0,0,0-96,96v10.667s11.975-3.514,33.6-6.508Z"/><path d="M391.762,301.567a192.608,192.608,0,0,0-63.292-42.043,106.392,106.392,0,0,0,34.2-78.191V128a106.667,106.667,0,1,0-213.334,0v53.333a106.391,106.391,0,0,0,34.187,78.182A193.815,193.815,0,0,0,103.474,320.7,190.236,190.236,0,0,0,64,437.333a53.349,53.349,0,0,0,53.333,53.334H394.662A53.394,53.394,0,0,0,448,437.333,190.784,190.784,0,0,0,391.762,301.567ZM256,42.667A85.419,85.419,0,0,1,341.259,125.1c-15.829-3.281-44.729-7.767-84.5-7.767-40.181,0-69.884,4.574-86.018,7.853A85.418,85.418,0,0,1,256,42.667ZM170.667,181.333v-34.3c13.39-2.953,43.714-8.368,86.089-8.368,42.127,0,71.556,5.352,84.577,8.3v34.365A85.312,85.312,0,0,1,302.546,252.8a10.708,10.708,0,0,0-4.224,2.586,85.021,85.021,0,0,1-84.635,0,10.724,10.724,0,0,0-4.258-2.606A85.314,85.314,0,0,1,170.667,181.333Zm223.995,288H117.329a32.013,32.013,0,0,1-32-32c0-74.2,48.693-140.4,119.011-162.706a105.859,105.859,0,0,0,40.993,12.841v75.2a10.667,10.667,0,0,0,21.334,0v-75.2a105.862,105.862,0,0,0,40.981-12.835,170.773,170.773,0,0,1,119.014,162.7A32.036,32.036,0,0,1,394.662,469.333Z"/></g></svg>